<?xml version="1.0" encoding="utf-8"?>
<!-- Generator: Adobe Illustrator 16.0.0, SVG Export Plug-In . SVG Version: 6.00 Build 0)  -->
<!DOCTYPE svg PUBLIC "-//W3C//DTD SVG 1.1//EN" "http://www.w3.org/Graphics/SVG/1.1/DTD/svg11.dtd">
<svg version="1.1" id="Calque_1" xmlns="http://www.w3.org/2000/svg" xmlns:xlink="http://www.w3.org/1999/xlink" x="0px" y="0px"
	 width="194px" height="695px" viewBox="0 0 194 695" enable-background="new 0 0 194 695" xml:space="preserve">
<path d="M194,590V0h-55l1,446c-3,33-20,54-44,54c-26,0-43-26-43-65c0-131,1-305,1-435H0v447c0,60,31,100,77,100c29,0,51-20,64-53
	v104c0,30-18,50-44,50s-43-19-43-47v-23H0v14c0,62,39,103,97,103S194,653,194,590z"/>
</svg>
