<?xml version="1.0" encoding="utf-8"?>
<!-- Generator: Adobe Illustrator 16.0.0, SVG Export Plug-In . SVG Version: 6.00 Build 0)  -->
<!DOCTYPE svg PUBLIC "-//W3C//DTD SVG 1.1//EN" "http://www.w3.org/Graphics/SVG/1.1/DTD/svg11.dtd">
<svg version="1.1" id="Calque_1" xmlns="http://www.w3.org/2000/svg" xmlns:xlink="http://www.w3.org/1999/xlink" x="0px" y="0px"
	 width="186.027px" height="610px" viewBox="0 0 186.027 610" enable-background="new 0 0 186.027 610" xml:space="preserve">
<path d="M132.027,289v209c0,39-16,65-40,65c-23,0-39-26-39-65l1-110c0-34,11-60,28-67C103.027,313,120.027,305,132.027,289z
	 M5.027,99v108h54V91c0-26,14-44,36-44s37,17,37,44v126c0,39-26,53-64,67c-42,16-69,57-68,104v122c0,60,28,100,71,100
	c28,0,49-19,61-50v45h54V99c0-59-36-99-91-99C41.027,0,5.027,40,5.027,99z"/>
</svg>
